<svg width="32" height="32" viewBox="0 0 32 32" fill="none" xmlns="http://www.w3.org/2000/svg">
<path d="M23.9992 22.0004H21.9991V13.2498L15.9987 17L9.99831 13.2498V22.0004H7.99818V9.99958H9.19826L15.9987 14.2499L22.7991 9.99958H23.9992V22.0004ZM23.9992 7.99945H7.99818C6.8881 7.99945 5.99805 8.88951 5.99805 9.99958V22.0004C5.99805 22.5308 6.20877 23.0396 6.58387 23.4147C6.95897 23.7898 7.46771 24.0005 7.99818 24.0005H23.9992C24.5297 24.0005 25.0384 23.7898 25.4135 23.4147C25.7886 23.0396 25.9993 22.5308 25.9993 22.0004V9.99958C25.9993 9.46911 25.7886 8.96037 25.4135 8.58528C25.0384 8.21018 24.5297 7.99945 23.9992 7.99945Z" fill="#9FAFB9"/>
</svg>