<svg width="64" height="64" viewBox="0 0 64 64" fill="none" xmlns="http://www.w3.org/2000/svg">
<path d="M58.2994 37.4889C58.2994 37.4889 43.7455 42.8729 39.0728 46.1593C33.3495 50.1847 31.7891 52.5449 31.7891 52.5449C31.7891 52.5449 30.2286 50.1847 24.5053 46.1593C19.8326 42.8729 5.27869 37.4889 5.27869 37.4889" stroke="#546978" stroke-width="2.71676" stroke-linecap="round"/>
<path fill-rule="evenodd" clip-rule="evenodd" d="M18.4653 43.5801L31.7774 52.2737L45.0895 43.5801L58.7209 37.4074C59.0806 37.2445 59.4884 37.5075 59.4884 37.9024V41.4551C59.4884 41.6534 59.3803 41.8359 59.2065 41.9314L31.7774 56.9905L4.34826 41.9314C4.17444 41.8359 4.06641 41.6534 4.06641 41.4551V37.9024C4.06641 37.5075 4.47422 37.2445 4.8339 37.4074L18.4653 43.5801Z" fill="#546978"/>
<path fill-rule="evenodd" clip-rule="evenodd" d="M3.80078 37.9019C3.80078 37.3096 4.41249 36.9151 4.95202 37.1595L18.6024 43.3407L31.7834 51.9488L44.9645 43.3407L58.6149 37.1595C59.1544 36.9151 59.7661 37.3096 59.7661 37.9019V42.5413C59.7661 42.8388 59.6041 43.1126 59.3433 43.2558L31.7834 58.3867L4.22357 43.2558C3.96283 43.1126 3.80078 42.8388 3.80078 42.5413V37.9019ZM4.72788 37.6544C4.54804 37.573 4.34413 37.7045 4.34413 37.9019V42.5413C4.34413 42.6405 4.39815 42.7317 4.48506 42.7795L31.7834 57.7668L59.0818 42.7795C59.1687 42.7317 59.2228 42.6405 59.2228 42.5413V37.9019C59.2228 37.7045 59.0188 37.573 58.839 37.6544L45.2267 43.8185L31.7834 52.5977L18.3402 43.8185L4.72788 37.6544Z" fill="#546978"/>
<path fill-rule="evenodd" clip-rule="evenodd" d="M26.5 10C26.2239 10 26 10.2239 26 10.5V12.5C26 12.7761 26.2239 13 26.5 13H35.5C35.7761 13 36 12.7761 36 12.5V10.5C36 10.2239 35.7761 10 35.5 10H26.5ZM26 14.5C26 14.2239 26.2239 14 26.5 14H35.5C35.7761 14 36 14.2239 36 14.5V43.7556C34.3412 45.0364 33.1559 46.1003 32.3298 46.9173C32.129 47.1158 31.9494 47.2999 31.7893 47.4689C31.6292 47.2999 31.4496 47.1158 31.2488 46.9173C30.1813 45.8616 28.5138 44.3933 26 42.5778V14.5ZM21 39.6437V26.5C21 26.2239 20.7761 26 20.5 26H11.5C11.2239 26 11 26.2239 11 26.5V35.2721C11.8379 35.6082 12.7358 35.9737 13.6618 36.359C16.0608 37.3571 18.7087 38.5117 21 39.6437ZM11 38.202C11.5249 38.4153 12.0666 38.6378 12.6182 38.8673C14.9977 39.8573 17.505 40.955 19.6361 42H11.5C11.2239 42 11 41.7761 11 41.5V38.202ZM26 45.9692C27.5346 47.1589 28.6102 48.1288 29.3386 48.849C29.3907 48.9006 29.4412 48.951 29.4898 49H26.5C26.2239 49 26 48.7761 26 48.5V45.9692ZM34.0888 49H35.5C35.7761 49 36 48.7761 36 48.5V47.2471C35.2652 47.8706 34.6872 48.4069 34.2401 48.849C34.1879 48.9006 34.1375 48.951 34.0888 49ZM41.9951 43H50.5C50.7761 43 51 42.7761 51 42.5V38.8509C50.9868 38.8564 50.9736 38.8618 50.9604 38.8673C47.8048 40.1802 44.4247 41.6824 41.9951 43ZM51 35.9119C50.6447 36.0574 50.2829 36.2067 49.9168 36.359C46.9425 37.5965 43.5854 39.0744 41 40.4518V21.5C41 21.2239 41.2239 21 41.5 21H50.5C50.7761 21 51 21.2239 51 21.5V35.9119ZM41 17.5C41 17.2239 41.2239 17 41.5 17H50.5C50.7761 17 51 17.2239 51 17.5V19.5C51 19.7761 50.7761 20 50.5 20H41.5C41.2239 20 41 19.7761 41 19.5V17.5ZM11.5 22C11.2239 22 11 22.2239 11 22.5V24.5C11 24.7761 11.2239 25 11.5 25H20.5C20.7761 25 21 24.7761 21 24.5V22.5C21 22.2239 20.7761 22 20.5 22H11.5Z" fill="url(#paint0_linear_30906_19757)"/>
<defs>
<linearGradient id="paint0_linear_30906_19757" x1="31" y1="14" x2="31" y2="49" gradientUnits="userSpaceOnUse">
<stop stop-color="#546978"/>
<stop offset="0.171413" stop-color="#546978"/>
<stop offset="1" stop-color="#546978" stop-opacity="0"/>
</linearGradient>
</defs>
</svg>
