<svg
        width="32"
        height="32"
        viewBox="0 0 32 32"
        fill="none"
        xmlns="http://www.w3.org/2000/svg"
        >
    <path
    d="M4.245 17.785V6.207l8.798 6.66v4.918h2.246v-5.388a1.32 1.32 0 00-.522-1.053L4.097 3.267C3.234 2.614 2 3.233 2 4.32v13.465h2.246zM28.017 17.785V6.207l-8.797 6.66v4.918h-2.246v-5.388c0-.414.193-.804.522-1.053l10.67-8.077c.863-.653 2.098-.034 2.098 1.053v13.465h-2.247zM12.944 28.429c0 .3.244.543.544.543h5.127a.508.508 0 100-1.016H14.67a.544.544 0 01-.544-.543V25.16c0-.3.243-.543.544-.543h3.526a.508.508 0 100-1.016h-3.526a.544.544 0 01-.544-.544v-1.974c0-.3.243-.543.544-.543h3.944a.508.508 0 100-1.016h-5.127c-.3 0-.544.243-.544.543v8.362zM2.76 26.161c-.3 0-.55.246-.505.543.273 1.827 1.937 2.56 3.579 2.56 1.78 0 3.631-.848 3.631-2.616 0-3.367-5.732-2.282-5.732-4.62 0-.862.793-1.433 2.115-1.433 1.101 0 1.768.521 1.967 1.313.074.29.308.538.608.538h.22c.3 0 .55-.245.501-.541-.263-1.598-1.7-2.381-3.296-2.381-1.74 0-3.382.863-3.382 2.505 0 3.297 5.678 2.282 5.678 4.62 0 .89-.835 1.53-2.31 1.53-1.208 0-2.043-.524-2.265-1.478-.068-.293-.302-.54-.603-.54H2.76zM23.145 26.161c-.3 0-.549.246-.505.543.273 1.827 1.938 2.56 3.58 2.56 1.78 0 3.631-.848 3.631-2.616 0-3.367-5.733-2.282-5.733-4.62 0-.862.793-1.433 2.115-1.433 1.102 0 1.768.521 1.968 1.313.074.29.307.538.607.538h.221c.3 0 .55-.245.501-.541-.263-1.598-1.7-2.381-3.297-2.381-1.739 0-3.381.863-3.381 2.505 0 3.297 5.677 2.282 5.677 4.62 0 .89-.835 1.53-2.31 1.53-1.208 0-2.043-.524-2.265-1.478-.067-.293-.302-.54-.602-.54h-.207z"
    fill="#1AAB9B"
/>
</svg>