<svg viewBox="0 0 20 20" fill="none" xmlns="http://www.w3.org/2000/svg">
<path d="M20.0001 7.41111C20.0001 7.68725 19.7762 7.91111 19.5001 7.91111H13.6497C13.2077 7.91111 12.9831 7.37968 13.2911 7.06268L15.5112 4.77778C12.4778 1.77778 7.56672 1.66667 4.53339 4.66667C1.50005 7.67778 1.50005 12.5333 4.53339 15.5444C7.56672 18.5556 12.4778 18.5556 15.5112 15.5444C16.7592 14.3147 17.4919 12.9107 17.7092 11.2196C17.7873 10.6109 18.2753 10.1111 18.8889 10.1111C19.5026 10.1111 20.0048 10.6103 19.9239 11.2186C19.6597 13.2071 18.7073 15.4781 17.0667 17.1C13.1667 20.9667 6.83339 20.9667 2.93339 17.1C-0.955504 13.2444 -0.988837 6.97778 2.91116 3.12222C6.81116 -0.733333 13.0667 -0.733333 16.9667 3.12222L19.1414 0.883783C19.4543 0.561783 20.0001 0.783253 20.0001 1.23219V7.41111ZM9.72227 5.55556C10.1825 5.55556 10.5556 5.92865 10.5556 6.38889V10.2778L13.7715 12.1889C14.1431 12.4098 14.2652 12.8902 14.0442 13.2617C13.8234 13.6328 13.3437 13.7548 12.9724 13.5345L8.88894 11.1111V6.38889C8.88894 5.92865 9.26204 5.55556 9.72227 5.55556Z" fill="#252A34"/>
</svg>
