<svg xmlns="http://www.w3.org/2000/svg" viewBox="0 0 24 24" fill="none">
    <path d="M16.0965 8.81032C15.597 8.81328 15.1908 8.40857 15.1919 7.90905L15.1933 7.29131L15.1825 5.17327C15.18 4.67737 14.7765 4.27712 14.2806 4.27859L13.9311 4.27962C13.438 4.28108 13.0381 4.6793 13.0345 5.17236L13 9.91045C12.999 10.504 13.496 11.001 14.0896 11L18.8276 10.9655C19.3207 10.9619 19.7189 10.562 19.7204 10.0689L19.7214 9.71944C19.7229 9.22354 19.3226 8.82004 18.8267 8.81751L16.7087 8.80669L16.0965 8.81032Z" fill="#6C7275"/>
    <path fill-rule="evenodd" clip-rule="evenodd" d="M13.7118 9.60924C13.5243 9.42175 13.5243 9.11776 13.7118 8.93027L19.5015 3.14062C19.6889 2.95313 19.9929 2.95313 20.1804 3.14062L20.8594 3.81958C21.0469 4.00707 21.0469 4.31106 20.8594 4.49855L15.0697 10.2882C14.8822 10.4757 14.5783 10.4757 14.3908 10.2882L13.7118 9.60924Z" fill="#6C7275"/>
    <path d="M7.90347 15.1897C8.40298 15.1867 8.80919 15.5914 8.80807 16.091L8.80669 16.7087L8.81751 18.8267C8.82004 19.3226 9.22354 19.7229 9.71944 19.7214L10.0689 19.7204C10.562 19.7189 10.9619 19.3207 10.9655 18.8276L11 14.0896C11.001 13.496 10.504 12.999 9.91044 13L5.17236 13.0345C4.6793 13.0381 4.28108 13.438 4.27962 13.9311L4.27859 14.2806C4.27712 14.7765 4.67737 15.18 5.17327 15.1825L7.29131 15.1933L7.90347 15.1897Z" fill="#6C7275"/>
    <path fill-rule="evenodd" clip-rule="evenodd" d="M10.2882 14.3908C10.4757 14.5783 10.4757 14.8822 10.2882 15.0697L4.49855 20.8594C4.31106 21.0469 4.00707 21.0469 3.81958 20.8594L3.14062 20.1804C2.95313 19.9929 2.95313 19.6889 3.14062 19.5015L8.93027 13.7118C9.11776 13.5243 9.42175 13.5243 9.60924 13.7118L10.2882 14.3908Z" fill="#6C7275"/>
</svg>