<svg viewBox="0 0 24 24" fill="none" xmlns="http://www.w3.org/2000/svg">
    <path d="M17.9035 5.18968C18.403 5.18672 18.8092 5.59143 18.8081 6.09095L18.8067 6.70869L18.8175 8.82673C18.82 9.32263 19.2235 9.72288 19.7194 9.72141L20.0689 9.72038C20.562 9.71892 20.9619 9.3207 20.9655 8.82764L21 4.08955C21.001 3.49604 20.504 2.99901 19.9104 3L15.1724 3.03447C14.6793 3.03806 14.2811 3.438 14.2796 3.93107L14.2786 4.28056C14.2771 4.77646 14.6774 5.17996 15.1733 5.18249L17.2913 5.19331L17.9035 5.18968Z" fill="#6C7275"/>
    <path fill-rule="evenodd" clip-rule="evenodd" d="M20.2882 4.39076C20.4757 4.57825 20.4757 4.88224 20.2882 5.06973L14.4985 10.8594C14.3111 11.0469 14.0071 11.0469 13.8196 10.8594L13.1406 10.1804C12.9531 9.99293 12.9531 9.68894 13.1406 9.50145L18.9303 3.7118C19.1178 3.52431 19.4217 3.52431 19.6092 3.7118L20.2882 4.39076Z" fill="#6C7275"/>
    <path d="M6.09653 18.8103C5.59702 18.8133 5.19081 18.4086 5.19193 17.909L5.19331 17.2913L5.18249 15.1733C5.17996 14.6774 4.77646 14.2771 4.28056 14.2786L3.93107 14.2796C3.438 14.2811 3.03806 14.6793 3.03447 15.1724L3 19.9104C2.99901 20.504 3.49605 21.001 4.08956 21L8.82764 20.9655C9.3207 20.9619 9.71892 20.562 9.72038 20.0689L9.72141 19.7194C9.72288 19.2235 9.32263 18.82 8.82673 18.8175L6.70869 18.8067L6.09653 18.8103Z" fill="#6C7275"/>
    <path fill-rule="evenodd" clip-rule="evenodd" d="M3.7118 19.6092C3.52431 19.4217 3.52431 19.1178 3.7118 18.9303L9.50145 13.1406C9.68894 12.9531 9.99293 12.9531 10.1804 13.1406L10.8594 13.8196C11.0469 14.0071 11.0469 14.3111 10.8594 14.4985L5.06973 20.2882C4.88224 20.4757 4.57825 20.4757 4.39076 20.2882L3.7118 19.6092Z" fill="#6C7275"/>
</svg>
    