<svg viewBox="0 0 24 24" fill="none" xmlns="http://www.w3.org/2000/svg">
<path d="M19.9075 11.9107L20 12.0002L19.9075 12.0897L19.3359 12.6432L19.3351 12.644L14.1863 17.6285C13.8192 17.9838 13.2242 17.9838 12.8572 17.6285C12.4902 17.2732 12.4902 16.6971 12.8572 16.3418L16.402 12.91H4.93981C4.42078 12.91 4 12.5027 4 12.0002C4 11.4977 4.42078 11.0904 4.93981 11.0904H16.402L12.8572 7.65866C12.4902 7.30334 12.4902 6.72727 12.8572 6.37196C13.2242 6.01664 13.8192 6.01664 14.1863 6.37196L19.3351 11.3565L19.3359 11.3573L19.9075 11.9107Z" fill="#6C7275"/>
</svg>
