<svg width="32" height="32" viewBox="0 0 32 32" fill="none" xmlns="http://www.w3.org/2000/svg">
<rect width="32" height="32" rx="16" fill="#CED3DC"/>
<path d="M15.9961 5.9541C13.2347 5.9541 10.9961 8.1927 10.9961 10.9541C10.9961 13.7155 13.2347 15.9541 15.9961 15.9541C18.7575 15.9541 20.9961 13.7155 20.9961 10.9541C20.9961 8.1927 18.7575 5.9541 15.9961 5.9541ZM12.4649 17.2666C9.85059 17.9811 7.99609 20.2543 7.99609 22.9541V24.9541C7.99609 25.5064 8.44379 25.9541 8.99609 25.9541H22.9961C23.5484 25.9541 23.9961 25.5064 23.9961 24.9541V22.9541C23.9961 20.2543 22.1416 17.9811 19.5273 17.2666C19.3032 17.2053 19.083 17.2336 18.8711 17.3291C17.9556 17.7417 16.981 17.9541 15.9961 17.9541C15.0112 17.9541 14.0366 17.7417 13.1211 17.3291C12.9092 17.2336 12.689 17.2053 12.4649 17.2666Z" fill="#6C7275"/>
</svg>
