<svg width="24" height="24" viewBox="0 0 24 24" fill="none" xmlns="http://www.w3.org/2000/svg">
<g id="bar-chart-line-fill">
<path id="Vector" d="M5.9929 3.99805C7.0979 3.99805 7.9929 4.89305 7.9929 5.99805V17.998H8.9929V9.99805C8.9929 8.89305 9.8879 7.99805 10.9929 7.99805H12.9929C14.0979 7.99805 14.9929 8.89305 14.9929 9.99805V17.998H15.9929V13.998C15.9929 12.893 16.8879 11.998 17.9929 11.998H19.9929C21.0979 11.998 21.9929 12.893 21.9929 13.998V17.998C22.5449 17.998 22.9929 18.446 22.9929 18.998C22.9929 19.55 22.5449 19.998 21.9929 19.998H20.9929H2.99289H1.99289C1.44089 19.998 0.992889 19.55 0.992889 18.998C0.992889 18.446 1.44089 17.998 1.99289 17.998V5.99805C1.99289 4.89305 2.88789 3.99805 3.99289 3.99805H5.9929Z" fill="#F3F5F7"/>
</g>
</svg>
