<svg viewBox="0 0 24 24" fill="none" xmlns="http://www.w3.org/2000/svg">
<path d="M11.9882 20.334C16.5907 20.334 20.3215 16.6032 20.3215 12.0007C20.3215 7.39815 16.5907 3.66732 11.9882 3.66732C7.3857 3.66732 3.65487 7.39815 3.65487 12.0007C3.65487 16.6032 7.3857 20.334 11.9882 20.334ZM11.9882 16.1673C11.5282 16.1673 11.1549 15.794 11.1549 15.334L11.1549 11.1673C11.1549 10.7073 11.5282 10.334 11.9882 10.334C12.4482 10.334 12.8215 10.7073 12.8215 11.1673V15.334C12.8215 15.794 12.4482 16.1673 11.9882 16.1673ZM11.9882 9.50065C11.5282 9.50065 11.1549 9.12732 11.1549 8.66732C11.1549 8.20732 11.5282 7.83398 11.9882 7.83398C12.4482 7.83398 12.8215 8.20732 12.8215 8.66732C12.8215 9.12732 12.4482 9.50065 11.9882 9.50065Z" fill="#1990FF"/>
</svg>
