<svg viewBox="0 0 21 22" fill="none" xmlns="http://www.w3.org/2000/svg">
<g id="/icons">
<g id="Union">
<path d="M14.9202 3.44117C15.6192 2.44286 16.9952 2.20023 17.9935 2.89926C18.9918 3.59829 19.2345 4.97427 18.5354 5.97259L16.3912 9.03482C17.0845 10.3269 17.0416 11.9531 16.1432 13.2363C16.0161 13.4178 15.7659 13.4619 15.5844 13.3348L9.01122 8.73225C8.82971 8.60516 8.78559 8.35498 8.91269 8.17347C9.81117 6.8903 11.3248 6.29379 12.776 6.50338L14.9202 3.44117Z" fill="currentColor"/>
<path d="M8.40831 9.65705C8.19829 9.50999 7.91464 9.527 7.72371 9.69812L5.63957 11.5659C5.55928 11.6378 5.46889 11.6976 5.37126 11.7434L2.63537 13.025C1.86701 13.3849 1.77553 14.4413 2.47058 14.928L4.0829 16.0569C4.1387 16.0457 4.19288 16.033 4.24498 16.0188C4.69035 15.8973 5.20858 15.6015 5.60365 15.3454C5.90864 15.1476 6.33427 15.2928 6.42993 15.6435C6.48392 15.8414 6.41408 16.0521 6.24664 16.1707C5.99307 16.3502 5.593 16.6166 5.17933 16.8246L6.68421 17.8784C6.76604 17.8617 6.84554 17.843 6.92211 17.8221C7.60174 17.6367 8.39255 17.1853 8.99543 16.7944C9.46085 16.4927 10.1104 16.7143 10.2563 17.2494C10.3387 17.5514 10.2321 17.873 9.97663 18.0539C9.59113 18.3269 8.98374 18.7313 8.35501 19.0483L9.58532 19.9097C10.5475 20.5834 11.8698 20.3861 12.5518 19.4298C12.9944 18.8091 13.4718 18.1083 13.8335 17.4966C14.3264 16.6633 14.8492 15.4856 15.1106 14.8735C15.2116 14.637 15.1308 14.3642 14.9201 14.2167L8.40831 9.65705Z" fill="currentColor"/>
</g>
</g>
</svg>
