<svg viewBox="0 0 16 16" fill="none" xmlns="http://www.w3.org/2000/svg">
<path fill-rule="evenodd" clip-rule="evenodd" d="M11.3718 12.7205C11.7443 13.0929 12.3482 13.0929 12.7206 12.7205C13.093 12.3481 13.093 11.7442 12.7206 11.3718L9.34883 8.00003L12.7207 4.62821C13.0931 4.25577 13.0931 3.65192 12.7207 3.27948C12.3483 2.90703 11.7444 2.90703 11.3719 3.27948L8.00008 6.65129L4.62809 3.27933C4.25564 2.90689 3.65178 2.90689 3.27934 3.27933C2.90689 3.65177 2.90689 4.25563 3.27934 4.62807L6.65133 8.00003L3.27941 11.3719C2.90697 11.7444 2.90697 12.3482 3.27941 12.7207C3.65186 13.0931 4.25572 13.0931 4.62816 12.7207L8.00008 9.34876L11.3718 12.7205Z" fill="currentcolor"/>
</svg>
    