<svg  viewBox="0 0 30 27" fill="none" xmlns="http://www.w3.org/2000/svg">
<path fill-rule="evenodd" clip-rule="evenodd" d="M3.88647 0.941406H14.0446C20.2235 0.941406 24.9072 4.26252 26.6496 9.09516H29.814V12.0161H27.316C27.3649 12.4776 27.3898 12.9479 27.3898 13.4256V13.4974C27.3898 14.0353 27.3583 14.564 27.2965 15.0819H29.814V18.0029H26.5894C24.8011 22.7683 20.1536 26.0577 14.0446 26.0577H3.88647V18.0029H0.356598V15.0819H3.88647V12.0161H0.356598V9.09516H3.88647V0.941406ZM6.72627 18.0029V23.4374H14.0446C18.5607 23.4374 21.9159 21.2608 23.4778 18.0029H6.72627ZM24.3478 15.0819H6.72627V12.0161H24.3523C24.4177 12.4985 24.451 12.9931 24.451 13.4974V13.5691C24.451 14.085 24.4162 14.5901 24.3478 15.0819ZM14.0446 3.55735C18.5815 3.55735 21.9468 5.7914 23.4993 9.09516H6.72627V3.55735H14.0446Z" fill="initial"/>
</svg>
    