<svg width="24" height="24" viewBox="0 0 24 24" fill="none" xmlns="http://www.w3.org/2000/svg">
<path fill-rule="evenodd" clip-rule="evenodd" d="M8.25 12.375C8.25 13.4105 7.41053 14.25 6.375 14.25C5.33947 14.25 4.5 13.4105 4.5 12.375C4.5 11.3395 5.33947 10.5 6.375 10.5C7.41053 10.5 8.25 11.3395 8.25 12.375ZM13.875 12.375C13.875 13.4105 13.0355 14.25 12 14.25C10.9645 14.25 10.125 13.4105 10.125 12.375C10.125 11.3395 10.9645 10.5 12 10.5C13.0355 10.5 13.875 11.3395 13.875 12.375ZM17.625 14.25C18.6606 14.25 19.5 13.4105 19.5 12.375C19.5 11.3395 18.6606 10.5 17.625 10.5C16.5894 10.5 15.75 11.3395 15.75 12.375C15.75 13.4105 16.5894 14.25 17.625 14.25Z" fill="#5B667E"/>
</svg>
