<svg  viewBox="0 0 24 24" fill="none" xmlns="http://www.w3.org/2000/svg">
<path d="M14.7751 8.28044C15.2953 8.27736 15.7184 8.69884 15.7172 9.21906L15.7158 9.86241L15.7271 12.0682C15.7297 12.5847 16.1499 13.0015 16.6664 13L17.0303 12.9989C17.5438 12.9974 17.9604 12.5827 17.9641 12.0692L18 7.13471C18.001 6.5166 17.4834 5.99897 16.8653 6L11.9308 6.0359C11.4173 6.03964 11.0026 6.45615 11.0011 6.96966L11 7.33364C10.9985 7.85009 11.4153 8.27031 11.9318 8.27295L14.1376 8.28421L14.7751 8.28044Z" fill="currentColor"/>
<path d="M3.5 12C3.77614 12 4 11.7761 4 11.5V4H20V20H12.5C12.2239 20 12 20.2239 12 20.5V21.5C12 21.7761 12.2239 22 12.5 22H21C21.5523 22 22 21.5523 22 21V3C22 2.44772 21.5523 2 21 2H3C2.44772 2 2 2.44772 2 3V11.5C2 11.7761 2.22386 12 2.5 12H3.5Z" fill="currentColor"/>
<mask id="path-3-inside-1_2575_48597" fill="white">
<rect x="2" y="14" width="8" height="8" rx="1"/>
</mask>
<rect x="2" y="14" width="8" height="8" rx="1" stroke="currentColor" stroke-width="2" />
<line x1="8.51457" y1="15.5278" x2="16.2927" y2="7.74958" stroke="currentColor" stroke-width="2"/>
</svg>
