<svg viewBox="0 0 16 16" fill="none" xmlns="http://www.w3.org/2000/svg">
<path fill-rule="evenodd" clip-rule="evenodd" d="M10.0824 2.64016C9.83534 2.40393 10.0103 2 10.3597 2H13.7266C13.9432 2 14.1188 2.1679 14.1188 2.375V5.59468C14.1188 5.92877 13.6964 6.09608 13.4493 5.85985L12.3204 4.78034L6.04594 10.7803C5.73964 11.0732 5.24305 11.0732 4.93675 10.7803C4.63046 10.4875 4.63046 10.0126 4.93675 9.71969L11.2113 3.71967L10.0824 2.64016ZM4.05476 4H8.73501L7.28705 5.53846H4.05476C3.65492 5.53846 3.33078 5.88286 3.33078 6.30769V11.6923C3.33078 12.1172 3.65492 12.4615 4.05476 12.4615H9.12263C9.52249 12.4615 9.84661 12.1172 9.84661 11.6923V8.25823L11.2946 6.71975V11.6923C11.2946 12.9668 10.3222 14 9.12263 14H4.05476C2.85523 14 1.88281 12.9668 1.88281 11.6923V6.30769C1.88281 5.03319 2.85523 4 4.05476 4Z" fill="currentColor"/>
</svg>
