<svg viewBox="0 0 24 24" fill="none" xmlns="http://www.w3.org/2000/svg">
<g id="/icons">
<g id="Group 1">
<path id="Vector" d="M4.79793 4C3.80547 4 3 4.80073 3 5.78733C3 6.77394 3.80547 7.57467 4.79793 7.57467L19.2021 7.57468C20.1945 7.57468 21 6.77395 21 5.78734C21 4.80073 20.1945 4.00001 19.2021 4.00001L4.79793 4Z" fill="currentColor"/>
<path id="Vector_2" d="M6.79793 10C5.80547 10 5 10.8007 5 11.7873C5 12.7739 5.80547 13.5747 6.79793 13.5747L17.2021 13.5747C18.1945 13.5747 19 12.774 19 11.7873C19 10.8007 18.1945 10 17.2021 10L6.79793 10Z" fill="currentColor"/>
<path id="Vector_3" d="M8.79793 16C7.80547 16 7 16.8007 7 17.7873C7 18.7739 7.80547 19.5747 8.79793 19.5747L15.2021 19.5747C16.1945 19.5747 17 18.774 17 17.7873C17 16.8007 16.1945 16 15.2021 16L8.79793 16Z" fill="currentColor"/>
</g>
</g>
</svg>
