<svg viewBox="0 0 16 16" fill="none" xmlns="http://www.w3.org/2000/svg">
<path d="M12.5 5H11.5V9.5H5V10.5C5 10.6326 5.05268 10.7598 5.14645 10.8536C5.24021 10.9473 5.36739 11 5.5 11H11L13 13V5.5C13 5.36739 12.9473 5.24021 12.8536 5.14645C12.7598 5.05268 12.6326 5 12.5 5ZM10.5 8V3.5C10.5 3.36739 10.4473 3.24021 10.3536 3.14645C10.2598 3.05268 10.1326 3 10 3H3.5C3.36739 3 3.24021 3.05268 3.14645 3.14645C3.05268 3.24021 3 3.36739 3 3.5V10.5L5 8.5H10C10.1326 8.5 10.2598 8.44732 10.3536 8.35355C10.4473 8.25979 10.5 8.13261 10.5 8Z" fill="#5B646D"/>
</svg>
