<svg viewBox="0 0 104 36" fill="none" xmlns="http://www.w3.org/2000/svg">
<path d="M21.7588 19.318L20.3699 16.6899C18.3699 17.7501 16.745 18.3947 15.5126 18.6162C16.9487 17.6331 18.2531 15.9407 19.4407 13.5242L16.7773 12.2076C15.9673 13.8527 15.2095 14.9079 14.5238 15.5799C14.9139 13.7755 14.417 11.232 12.2852 7.2002L9.66153 8.59142C10.7199 10.5949 11.3634 12.2225 11.5846 13.4545C10.6032 12.016 8.91368 10.7118 6.50367 9.51973L5.18934 12.1877C6.83163 12.999 7.88508 13.7581 8.5559 14.445C6.75461 14.0543 4.2154 14.552 0.19043 16.6849L1.57929 19.313C3.57687 18.2528 5.19928 17.6107 6.43162 17.3867C4.99306 18.3822 3.69116 20.0721 2.50851 22.4762L5.17195 23.7928C5.97694 22.1552 6.73722 21.0975 7.42544 20.4205C7.03536 22.2249 7.53227 24.7684 9.66401 28.8002L12.2877 27.409C11.2293 25.408 10.5883 23.7828 10.3647 22.5484C11.3585 23.9894 13.0455 25.2935 15.4456 26.4782L16.7599 23.8102C15.1251 23.0039 14.0691 22.2448 13.3933 21.5554C13.7585 21.635 14.1511 21.6773 14.5834 21.6773C16.2829 21.6773 18.5512 21.0153 21.7613 19.313L21.7588 19.318Z" fill="currentColor"/>
<path d="M81.4697 26.1445V14.1952H85.158V16.439H85.233C85.5547 15.6446 86.0407 15.0398 86.6912 14.6246C87.3416 14.2024 88.1243 13.9912 89.0392 13.9912C90.3687 13.9912 91.4087 14.3884 92.1592 15.1829C92.9169 15.9774 93.2957 17.0796 93.2957 18.4896V26.1445H89.4895V19.3056C89.4895 18.6113 89.3072 18.0709 88.9427 17.6844C88.5853 17.2908 88.0814 17.094 87.431 17.094C86.7877 17.094 86.2659 17.3087 85.8656 17.7381C85.4653 18.1676 85.2652 18.7223 85.2652 19.4022V26.1445H81.4697Z" fill="currentColor"/>
<path d="M79.1958 24.7595C78.1165 25.8546 76.6298 26.4021 74.7356 26.4021C72.8414 26.4021 71.3547 25.8546 70.2754 24.7595C69.1961 23.6573 68.6564 22.1256 68.6564 20.1645C68.6564 18.2391 69.2032 16.7217 70.2968 15.6123C71.3905 14.4958 72.87 13.9375 74.7356 13.9375C76.6083 13.9375 78.0879 14.4922 79.1744 15.6016C80.268 16.7038 80.8148 18.2248 80.8148 20.1645C80.8148 22.1327 80.2751 23.6644 79.1958 24.7595ZM73.0952 22.7089C73.4883 23.303 74.0351 23.6 74.7356 23.6C75.4361 23.6 75.9829 23.303 76.376 22.7089C76.7691 22.1077 76.9657 21.2595 76.9657 20.1645C76.9657 19.098 76.7656 18.2606 76.3653 17.6522C75.965 17.0438 75.4218 16.7396 74.7356 16.7396C74.0423 16.7396 73.4955 17.0438 73.0952 17.6522C72.7021 18.2534 72.5055 19.0908 72.5055 20.1645C72.5055 21.2595 72.7021 22.1077 73.0952 22.7089Z" fill="currentColor"/>
<path d="M64.1631 26.1446V14.6453H67.9693V26.1446H64.1631Z" fill="currentColor"/>
<path d="M64.1631 13.5445V10.5952H67.9693V13.5445H64.1631Z" fill="#FF2E63"/>
<path d="M52.7114 17.8132C52.7114 16.6251 53.1867 15.6839 54.1374 14.9896C55.0952 14.2882 56.3853 13.9375 58.0079 13.9375C59.6161 13.9375 60.892 14.2954 61.8355 15.0111C62.779 15.7269 63.2579 16.6967 63.2722 17.9206H59.7984C59.7841 17.4912 59.609 17.1512 59.273 16.9007C58.9442 16.643 58.5082 16.5142 57.965 16.5142C57.4861 16.5142 57.1001 16.6108 56.807 16.804C56.514 16.9973 56.3675 17.2514 56.3675 17.5663C56.3675 18.0459 56.8249 18.3823 57.7398 18.5755L60.2058 19.0908C61.3995 19.3414 62.2608 19.7243 62.7897 20.2396C63.3258 20.7549 63.5938 21.4635 63.5938 22.3654C63.5938 23.5893 63.0864 24.5698 62.0714 25.3071C61.0564 26.0371 59.7162 26.4021 58.0508 26.4021C56.3567 26.4021 55.0165 26.0443 54.0301 25.3285C53.0438 24.6056 52.5112 23.6286 52.4326 22.3976H56.1209C56.178 22.8485 56.3818 23.1992 56.732 23.4497C57.0894 23.7002 57.554 23.8255 58.1258 23.8255C58.6547 23.8255 59.0693 23.736 59.3695 23.5571C59.6769 23.371 59.8305 23.1169 59.8305 22.7948C59.8305 22.5443 59.7269 22.3439 59.5196 22.1936C59.3195 22.0433 58.9835 21.918 58.5118 21.8178L56.271 21.3454C55.1059 21.1021 54.2196 20.6798 53.612 20.0786C53.0116 19.4773 52.7114 18.7222 52.7114 17.8132Z" fill="currentColor"/>
<path d="M51.8963 14.1954V26.1447H48.1974V23.8902H48.1223C47.8507 24.6703 47.3933 25.2751 46.75 25.7046C46.1138 26.134 45.349 26.3487 44.4555 26.3487C43.1475 26.3487 42.0896 25.9479 41.2819 25.1463C40.4742 24.3447 40.0704 23.2496 40.0704 21.861V14.1954H43.8658V21.0236C43.8658 21.7322 44.0552 22.2797 44.4341 22.6662C44.8201 23.0527 45.3311 23.246 45.9673 23.246C46.5891 23.246 47.0966 23.0348 47.4897 22.6126C47.89 22.1831 48.0902 21.6248 48.0902 20.9377V14.1954H51.8963Z" fill="currentColor"/>
<path d="M32.886 26.1446H28.9512V10.6523H39.4798V13.8302H32.886V17.3517H38.8794V20.3685H32.886V26.1446Z" fill="currentColor"/>
</svg>
