<svg width="16" height="16" viewBox="0 0 16 16" fill="none" xmlns="http://www.w3.org/2000/svg">
<g id="/icons">
<path id="Vector" d="M13.3346 1.99382C13.164 1.99382 12.9853 2.05116 12.8553 2.18116L10.1886 4.84782L8.66798 3.32715V7.32715H12.668L11.1473 5.80648L13.814 3.13982C14.074 2.87915 14.074 2.44182 13.814 2.18116C13.684 2.05116 13.5053 1.99382 13.3346 1.99382ZM3.33465 8.66049L4.85532 10.1812L2.18865 12.8478C1.92865 13.1085 1.92865 13.5458 2.18865 13.8065C2.31865 13.9365 2.49731 13.9938 2.66798 13.9938C2.83865 13.9938 3.01731 13.9365 3.14731 13.8065L5.81398 11.1398L7.33465 12.6605V8.66049H3.33465Z" fill="#F3F5F7"/>
</g>
</svg>
