<svg width="16" height="16" viewBox="0 0 16 16" fill="none" xmlns="http://www.w3.org/2000/svg">
<g id="/icons">
<path id="Vector" d="M9.99365 1.99384L11.5145 3.51451L8.84779 6.18117C8.58745 6.44184 8.58745 6.87917 8.84779 7.13983C8.97799 7.26983 9.15639 7.32717 9.32699 7.32717C9.49765 7.32717 9.67598 7.26983 9.80612 7.13983L12.4728 4.47317L13.9937 5.99384V1.99384H9.99365ZM6.66032 8.6605C6.48965 8.6605 6.31132 8.71784 6.18112 8.84784L3.51445 11.5145L1.99365 9.99384V13.9938H5.99365L4.47279 12.4732L7.13945 9.8065C7.39985 9.54583 7.39985 9.10851 7.13945 8.84784C7.00932 8.71784 6.83092 8.6605 6.66032 8.6605Z" fill="#F3F5F7"/>
</g>
</svg>
