<svg viewBox="0 0 16 16" fill="none" xmlns="http://www.w3.org/2000/svg">
<path d="M8.00456 2.5C5.4791 2.5 3.32848 4.12627 2.61283 6.36754H3.41185C3.49486 6.14602 3.59411 5.93256 3.70897 5.72799H5.24658C5.17952 5.93719 5.12439 6.15117 5.07872 6.36754H5.8576C5.91202 6.1495 5.97688 5.93537 6.054 5.72799H7.5379V6.36754H8.28992V5.72799H9.893C9.97926 5.93555 10.0517 6.14931 10.1129 6.36754H10.8918C10.8395 6.15094 10.7785 5.93738 10.7038 5.72799H12.3001C12.415 5.9326 12.5142 6.14598 12.5973 6.36754H13.3946C12.679 4.12627 10.53 2.5 8.00456 2.5ZM9.1393 3.38463C10.1919 3.62667 11.1112 4.19428 11.7764 4.97596H10.3815C10.0699 4.37324 9.65717 3.82927 9.1393 3.38463ZM6.64991 3.44003C6.18372 3.87276 5.81602 4.39671 5.54202 4.97596H4.2327C4.8512 4.24915 5.68921 3.70749 6.64991 3.44003ZM8.28992 3.68175C8.78573 4.02114 9.1858 4.46871 9.50356 4.97596H8.28992V3.68175ZM7.5379 3.68678V4.97596H6.40483C6.69593 4.46755 7.06755 4.0211 7.5379 3.68678ZM2.83776 7.09438C2.76293 7.09439 2.70042 7.11127 2.64976 7.14642C2.59909 7.18157 2.57422 7.22537 2.57422 7.27568C2.57422 7.31332 2.58506 7.36549 2.60947 7.43347L3.00898 8.58164C3.02115 8.61598 3.03516 8.65468 3.05095 8.69579C3.06673 8.7369 3.08879 8.77346 3.11473 8.8049C3.14067 8.83634 3.17598 8.86048 3.22049 8.87876C3.265 8.89704 3.32089 8.90562 3.38835 8.90562C3.47201 8.90562 3.53772 8.89045 3.58811 8.86029C3.63849 8.83014 3.67445 8.79771 3.69386 8.76125C3.71326 8.72479 3.73739 8.66864 3.76772 8.59171L4.12526 7.58454L4.48113 8.59675C4.51076 8.67175 4.53436 8.72709 4.55331 8.76293C4.57226 8.79877 4.607 8.83224 4.65739 8.86197C4.70777 8.8917 4.77481 8.90562 4.85882 8.90562C4.94714 8.90562 5.01636 8.89111 5.06529 8.86029C5.11421 8.82947 5.14846 8.79478 5.16769 8.75622C5.18691 8.71766 5.20946 8.65887 5.23651 8.58164L5.63602 7.43347C5.66078 7.36139 5.67295 7.30922 5.67295 7.27568C5.67295 7.22447 5.64702 7.18113 5.59574 7.14642C5.54444 7.11172 5.48292 7.09439 5.40941 7.09438C5.33569 7.09439 5.27881 7.10744 5.23987 7.13467C5.20092 7.16191 5.17417 7.19151 5.15929 7.22364C5.14441 7.25577 5.12906 7.29823 5.11397 7.34953L4.83196 8.32649L4.51638 7.41164C4.48689 7.33482 4.46294 7.27962 4.4442 7.24378C4.42546 7.20794 4.38925 7.17317 4.33845 7.14139C4.28764 7.1096 4.21678 7.09439 4.12526 7.09438C4.03527 7.09439 3.96497 7.10909 3.91208 7.13971C3.85919 7.17033 3.82141 7.20623 3.79961 7.24546C3.77781 7.28469 3.754 7.33927 3.72743 7.41164L3.41353 8.32649L3.12984 7.34282C3.10766 7.26822 3.07887 7.20887 3.04423 7.16321C3.0096 7.11755 2.94111 7.09439 2.83776 7.09438ZM6.70362 7.09438C6.62879 7.09439 6.56628 7.11127 6.51562 7.14642C6.46496 7.18157 6.44008 7.22537 6.44008 7.27568C6.44008 7.31332 6.4526 7.36549 6.47701 7.43347L6.87652 8.58164C6.88869 8.61598 6.9027 8.65468 6.91849 8.69579C6.93427 8.7369 6.95466 8.77346 6.9806 8.8049C7.00654 8.83634 7.04184 8.86048 7.08635 8.87876C7.13086 8.89704 7.18675 8.90562 7.25421 8.90562C7.33787 8.90562 7.40526 8.89045 7.45565 8.86029C7.50603 8.83014 7.54032 8.79771 7.55972 8.76125C7.57912 8.72479 7.60326 8.66864 7.63358 8.59171L7.99113 7.58454L8.34699 8.59675C8.37662 8.67175 8.40022 8.72709 8.41918 8.76293C8.43812 8.79877 8.47286 8.83224 8.52325 8.86197C8.57363 8.8917 8.64067 8.90562 8.72468 8.90562C8.813 8.90562 8.88223 8.89111 8.93115 8.86029C8.98008 8.82947 9.01432 8.79478 9.03355 8.75622C9.05278 8.71766 9.07532 8.65887 9.10237 8.58164L9.50188 7.43347C9.52664 7.36139 9.53881 7.30922 9.53881 7.27568C9.53881 7.22447 9.51288 7.18113 9.4616 7.14642C9.41031 7.11172 9.34878 7.09439 9.27527 7.09438C9.20155 7.09439 9.14467 7.10744 9.10573 7.13467C9.06678 7.16191 9.04004 7.19151 9.02516 7.22364C9.01027 7.25577 8.99492 7.29823 8.97983 7.34953L8.69783 8.32649L8.38225 7.41164C8.35276 7.33482 8.32881 7.27962 8.31006 7.24378C8.29132 7.20794 8.25679 7.17317 8.20599 7.14139C8.15519 7.1096 8.08432 7.09439 7.99281 7.09438C7.90281 7.09439 7.83083 7.10909 7.77794 7.13971C7.72505 7.17033 7.68728 7.20623 7.66547 7.24546C7.64367 7.28469 7.61986 7.33927 7.59329 7.41164L7.27939 8.32649L6.99571 7.34282C6.97352 7.26822 6.94641 7.20887 6.91177 7.16321C6.87714 7.11755 6.80697 7.09439 6.70362 7.09438ZM10.5695 7.09438C10.4947 7.09439 10.4321 7.11127 10.3815 7.14642C10.3308 7.18157 10.3059 7.22537 10.3059 7.27568C10.3059 7.31332 10.3185 7.36549 10.3429 7.43347L10.7424 8.58164C10.7546 8.61598 10.7686 8.65468 10.7844 8.69579C10.8001 8.7369 10.8205 8.77346 10.8465 8.8049C10.8724 8.83634 10.9077 8.86048 10.9522 8.87876C10.9967 8.89704 11.0526 8.90562 11.1201 8.90562C11.2037 8.90562 11.2711 8.89045 11.3215 8.86029C11.3719 8.83014 11.4062 8.79771 11.4256 8.76125C11.445 8.72479 11.4708 8.66864 11.5011 8.59171L11.857 7.58454L12.2129 8.59675C12.2425 8.67175 12.2661 8.72709 12.285 8.76293C12.304 8.79877 12.3387 8.83224 12.3891 8.86197C12.4395 8.8917 12.5065 8.90562 12.5905 8.90562C12.6789 8.90562 12.7481 8.89111 12.797 8.86029C12.8459 8.82947 12.8802 8.79478 12.8994 8.75622C12.9186 8.71766 12.9412 8.65887 12.9682 8.58164L13.3677 7.43347C13.3925 7.36139 13.4047 7.30922 13.4047 7.27568C13.4047 7.22447 13.3804 7.18113 13.3291 7.14642C13.2778 7.11172 13.2146 7.09439 13.1411 7.09438C13.0674 7.09439 13.0105 7.10744 12.9716 7.13467C12.9326 7.16191 12.9059 7.19151 12.891 7.22364C12.8761 7.25577 12.8608 7.29823 12.8457 7.34953L12.5654 8.32649L12.2481 7.41164C12.2186 7.33482 12.1947 7.27962 12.1759 7.24378C12.1572 7.20794 12.1227 7.17317 12.0719 7.14139C12.021 7.1096 11.9502 7.09439 11.8587 7.09438C11.7687 7.09439 11.6967 7.10909 11.6438 7.13971C11.5909 7.17033 11.5531 7.20623 11.5313 7.24546C11.5095 7.28469 11.4857 7.33927 11.4592 7.41164L11.1453 8.32649L10.8632 7.34282C10.8411 7.26822 10.8123 7.20887 10.7776 7.16321C10.743 7.11755 10.6728 7.09439 10.5695 7.09438ZM2.58429 9.53342C3.26749 11.8253 5.442 13.5 8.00456 13.5C10.5671 13.5 12.7417 11.8254 13.4248 9.53342H12.6308C12.5551 9.74957 12.4646 9.95855 12.3589 10.1595H10.7474C10.816 9.95462 10.8727 9.74514 10.9203 9.53342H10.1532C10.0996 9.74751 10.0355 9.95668 9.95679 10.1595H8.28992V9.53342H7.5379V10.1595H6.01539C5.94636 9.95743 5.88696 9.74804 5.83746 9.53342H5.06529C5.10855 9.74539 5.16135 9.95463 5.2214 10.1595H3.65021C3.54448 9.95855 3.45231 9.74957 3.3766 9.53342H2.58429ZM4.14373 10.9116H5.49166C5.76677 11.5479 6.13152 12.1163 6.60123 12.5482C5.61231 12.2622 4.76 11.6817 4.14373 10.9116ZM6.32929 10.9116H7.5379V12.3166C7.04951 12.007 6.64102 11.5134 6.32929 10.9116ZM8.28992 10.9116H9.58246C9.2543 11.4601 8.82755 11.9347 8.28992 12.2813V10.9116ZM10.4469 10.9116H11.8654C11.1866 11.7598 10.2201 12.3774 9.10237 12.6254C9.67591 12.1617 10.1215 11.5712 10.4469 10.9116Z" fill="#5B646D"/>
</svg>
