<svg viewBox="0 0 22 22" fill="none" xmlns="http://www.w3.org/2000/svg">
<path d="M11.0077 6.42481C10.1025 6.42328 9.21718 6.69032 8.46378 7.19212C7.71037 7.69392 7.12276 8.40793 6.77529 9.2438C6.42782 10.0797 6.33612 10.9998 6.51178 11.8878C6.68744 12.7759 7.12258 13.5918 7.76212 14.2324C8.40167 14.873 9.21687 15.3096 10.1046 15.4867C10.9923 15.6639 11.9126 15.5737 12.7491 15.2277C13.5855 14.8816 14.3005 14.2952 14.8036 13.5426C15.3067 12.7901 15.5752 11.9052 15.5752 11C15.5732 9.78855 15.0915 8.62718 14.2356 7.76982C13.3797 6.91247 12.2192 6.42889 11.0077 6.42481ZM11.0077 14.063C10.3973 14.063 9.80066 13.882 9.29315 13.5429C8.78564 13.2038 8.39008 12.7218 8.1565 12.1579C7.92292 11.594 7.8618 10.9734 7.98088 10.3748C8.09996 9.77613 8.39389 9.22624 8.82549 8.79463C9.25709 8.36303 9.80699 8.0691 10.4056 7.95002C11.0043 7.83095 11.6248 7.89206 12.1887 8.12564C12.7526 8.35923 13.2346 8.75478 13.5737 9.2623C13.9129 9.76981 14.0939 10.3665 14.0939 10.9769C14.0939 11.3821 14.014 11.7834 13.8589 12.1579C13.7038 12.5323 13.4765 12.8725 13.1899 13.1591C12.9034 13.4457 12.5632 13.673 12.1887 13.8281C11.8143 13.9832 11.413 14.063 11.0077 14.063Z" fill="#8391A7"/>
<path d="M11.0084 6.00001C10.0192 5.99834 9.05164 6.29016 8.22829 6.83856C7.40493 7.38695 6.76276 8.16726 6.38303 9.08074C6.0033 9.99422 5.90308 10.9998 6.09505 11.9703C6.28702 12.9407 6.76256 13.8324 7.46149 14.5325C8.16041 15.2327 9.05131 15.7097 10.0214 15.9033C10.9916 16.0969 11.9973 15.9984 12.9115 15.6202C13.8256 15.242 14.607 14.6012 15.1568 13.7787C15.7065 12.9563 16 11.9893 16 11C15.9978 9.67606 15.4714 8.40686 14.5361 7.4699C13.6007 6.53295 12.3324 6.00446 11.0084 6.00001ZM11.0084 14.3474C10.3414 14.3474 9.68931 14.1496 9.13467 13.779C8.58004 13.4084 8.14775 12.8817 7.89248 12.2654C7.63721 11.6491 7.57042 10.971 7.70056 10.3167C7.83069 9.6625 8.15191 9.06154 8.62359 8.58987C9.09527 8.11819 9.69622 7.79697 10.3505 7.66684C11.0047 7.5367 11.6828 7.60349 12.2991 7.85876C12.9154 8.11403 13.4421 8.54632 13.8127 9.10095C14.1833 9.65559 14.3811 10.3077 14.3811 10.9747C14.3811 11.4176 14.2939 11.8562 14.1244 12.2654C13.9549 12.6746 13.7065 13.0464 13.3933 13.3596C13.0801 13.6727 12.7083 13.9212 12.2991 14.0907C11.8899 14.2602 11.4513 14.3474 11.0084 14.3474Z" fill="#8391A7"/>
<path d="M1.66701 12.0291H4.12129L4.18422 11.998C4.41595 11.9459 4.62286 11.8176 4.77108 11.6342C4.91929 11.4508 5 11.2231 5 10.9885C5 10.7539 4.91929 10.5262 4.77108 10.3428C4.62286 10.1594 4.41595 10.0311 4.18422 9.97898H1.66701C1.51828 9.95806 1.36672 9.96893 1.22261 10.0108C1.0785 10.0528 0.945191 10.1248 0.831711 10.222C0.718231 10.3191 0.627227 10.4393 0.564859 10.5742C0.502491 10.7091 0.470215 10.8557 0.470215 11.004C0.470215 11.1523 0.502491 11.2989 0.564859 11.4338C0.627227 11.5688 0.718231 11.6889 0.831711 11.7861C0.945191 11.8833 1.0785 11.9553 1.22261 11.9972C1.36672 12.0391 1.51828 12.05 1.66701 12.0291Z" fill="#8391A7"/>
<path d="M18.1968 12.0291H20.6511L20.714 11.998C20.9457 11.9459 21.1526 11.8176 21.3009 11.6342C21.4491 11.4508 21.5298 11.2231 21.5298 10.9885C21.5298 10.7539 21.4491 10.5262 21.3009 10.3428C21.1526 10.1594 20.9457 10.0311 20.714 9.97898H18.1968C18.0481 9.95806 17.8965 9.96893 17.7524 10.0108C17.6083 10.0528 17.475 10.1248 17.3615 10.222C17.248 10.3191 17.157 10.4393 17.0946 10.5742C17.0323 10.7091 17 10.8557 17 11.004C17 11.1523 17.0323 11.2989 17.0946 11.4338C17.157 11.5688 17.248 11.6889 17.3615 11.7861C17.475 11.8833 17.6083 11.9553 17.7524 11.9972C17.8965 12.0391 18.0481 12.05 18.1968 12.0291Z" fill="#8391A7"/>
<path d="M5.12535 18.3282L6.86079 16.5928L6.88332 16.5263C7.01031 16.3256 7.06591 16.0886 7.04103 15.8541C7.01614 15.6196 6.91224 15.4015 6.74634 15.2356C6.58044 15.0697 6.36238 14.9658 6.12789 14.9409C5.8934 14.9161 5.65638 14.9717 5.45567 15.0987L3.67573 16.8786C3.55576 16.969 3.45628 17.0838 3.38402 17.2154C3.31176 17.3469 3.2684 17.4921 3.25689 17.641C3.24537 17.79 3.26596 17.9393 3.31727 18.0788C3.36858 18.2183 3.4494 18.3448 3.55427 18.4497C3.65915 18.5545 3.78562 18.6354 3.92513 18.6867C4.06464 18.738 4.21393 18.7586 4.3629 18.747C4.51186 18.7355 4.65703 18.6922 4.78858 18.6199C4.92012 18.5477 5.03497 18.4482 5.12535 18.3282Z" fill="#8391A7"/>
<path d="M16.8137 6.63988L18.5491 4.90444L18.5717 4.83798C18.6987 4.63726 18.7543 4.40024 18.7294 4.16575C18.7045 3.93126 18.6006 3.71321 18.4347 3.54731C18.2688 3.38141 18.0507 3.27751 17.8162 3.25262C17.5818 3.22773 17.3447 3.28334 17.144 3.41033L15.3641 5.19026C15.2441 5.28064 15.1446 5.39549 15.0724 5.52703C15.0001 5.65858 14.9568 5.80375 14.9452 5.95271C14.9337 6.10168 14.9543 6.25098 15.0056 6.39048C15.0569 6.52999 15.1378 6.65646 15.2426 6.76134C15.3475 6.86621 15.474 6.94703 15.6135 6.99834C15.753 7.04965 15.9023 7.07024 16.0513 7.05872C16.2002 7.04721 16.3454 7.00385 16.4769 6.93159C16.6085 6.85933 16.7233 6.75985 16.8137 6.63988Z" fill="#8391A7"/>
<path d="M12.025 20.337V17.8827L11.994 17.8198C11.9418 17.5881 11.8135 17.3812 11.6301 17.233C11.4467 17.0847 11.2191 17.004 10.9845 17.004C10.7498 17.004 10.5222 17.0847 10.3388 17.233C10.1554 17.3812 10.0271 17.5881 9.97495 17.8198V20.337C9.95403 20.4858 9.9649 20.6373 10.0068 20.7814C10.0487 20.9255 10.1207 21.0588 10.2179 21.1723C10.3151 21.2858 10.4352 21.3768 10.5702 21.4392C10.7051 21.5015 10.8517 21.5338 11 21.5338C11.1483 21.5338 11.2949 21.5015 11.4298 21.4392C11.5647 21.3768 11.6849 21.2858 11.7821 21.1723C11.8793 21.0588 11.9512 20.9255 11.9932 20.7814C12.0351 20.6373 12.0459 20.4858 12.025 20.337Z" fill="#8391A7"/>
<path d="M12.025 3.80723V1.35295L11.994 1.29002C11.9418 1.0583 11.8135 0.85138 11.6301 0.703168C11.4467 0.554956 11.2191 0.474239 10.9845 0.474239C10.7498 0.474239 10.5222 0.554956 10.3388 0.703168C10.1554 0.85138 10.0271 1.0583 9.97495 1.29002V3.80723C9.95403 3.95597 9.9649 4.10752 10.0068 4.25163C10.0487 4.39574 10.1207 4.52905 10.2179 4.64253C10.3151 4.75601 10.4352 4.84702 10.5702 4.90938C10.7051 4.97175 10.8517 5.00403 11 5.00403C11.1483 5.00403 11.2949 4.97175 11.4298 4.90938C11.5647 4.84702 11.6849 4.75601 11.7821 4.64253C11.8793 4.52905 11.9512 4.39574 11.9932 4.25163C12.0351 4.10752 12.0459 3.95597 12.025 3.80723Z" fill="#8391A7"/>
<path d="M18.3242 16.8787L16.5887 15.1432L16.5223 15.1207C16.3216 14.9937 16.0845 14.9381 15.8501 14.963C15.6156 14.9879 15.3975 15.0918 15.2316 15.2577C15.0657 15.4236 14.9618 15.6416 14.9369 15.8761C14.912 16.1106 14.9676 16.3476 15.0946 16.5484L16.8746 18.3283C16.9649 18.4483 17.0798 18.5477 17.2113 18.62C17.3429 18.6923 17.488 18.7356 17.637 18.7471C17.786 18.7587 17.9353 18.7381 18.0748 18.6868C18.2143 18.6355 18.3408 18.5546 18.4456 18.4498C18.5505 18.3449 18.6313 18.2184 18.6826 18.0789C18.7339 17.9394 18.7545 17.7901 18.743 17.6411C18.7315 17.4922 18.6881 17.347 18.6159 17.2155C18.5436 17.0839 18.4441 16.9691 18.3242 16.8787Z" fill="#8391A7"/>
<path d="M6.63582 5.19036L4.90038 3.45492L4.83392 3.43238C4.63321 3.30539 4.39619 3.24979 4.1617 3.27468C3.92721 3.29956 3.70915 3.40347 3.54325 3.56937C3.37735 3.73527 3.27345 3.95332 3.24856 4.18781C3.22367 4.4223 3.27928 4.65932 3.40627 4.86004L5.18621 6.63998C5.27658 6.75994 5.39143 6.85942 5.52297 6.93169C5.65452 7.00395 5.79969 7.0473 5.94866 7.05882C6.09763 7.07033 6.24692 7.04974 6.38643 6.99843C6.52593 6.94713 6.65241 6.8663 6.75728 6.76143C6.86215 6.65656 6.94297 6.53009 6.99428 6.39058C7.04559 6.25107 7.06618 6.10178 7.05467 5.95281C7.04315 5.80384 6.99979 5.65867 6.92753 5.52713C6.85527 5.39558 6.75579 5.28074 6.63582 5.19036Z" fill="#8391A7"/>
</svg>
