<svg viewBox="0 0 16 16" fill="none" xmlns="http://www.w3.org/2000/svg">
<path d="M4.95963 3C3.88199 3 3 3.88197 3 4.95963V11.0407C3 12.1183 3.88197 13 4.95963 13H11.0407C12.1183 13 13 12.1183 13 11.0407V4.95963C13 3.88199 12.1183 3 11.0407 3H4.95963ZM5.4525 4.6502C5.96921 4.6502 6.28748 4.98941 6.2973 5.43529C6.2973 5.87133 5.96919 6.22008 5.44251 6.22008H5.43281C4.92594 6.22008 4.59833 5.87135 4.59833 5.43529C4.59833 4.98942 4.93587 4.6502 5.4525 4.6502ZM9.90525 6.73421C10.899 6.73421 11.6439 7.38372 11.6439 8.77947V11.3851H10.1337V8.95416C10.1337 8.34329 9.91515 7.92653 9.36862 7.92653C8.9514 7.92653 8.70271 8.20744 8.59352 8.47879C8.55364 8.57588 8.54383 8.71147 8.54383 8.84728V11.3851H7.03364C7.03364 11.3851 7.05346 7.26716 7.03364 6.84078H8.54414V7.4843C8.74483 7.17466 9.10381 6.73421 9.90525 6.73421ZM4.68741 6.84111H6.1976V11.3851H4.68741V6.84111Z" fill="#5B646D"/>
</svg>
