<svg viewBox="0 0 15 14" fill="none" xmlns="http://www.w3.org/2000/svg">
<path fill-rule="evenodd" clip-rule="evenodd" d="M13.0422 1.45782C11.6817 0.0973946 9.47597 0.0973946 8.11552 1.45782L5.65224 3.92108C4.2918 5.28149 4.29209 7.487 5.65254 8.84742C5.99265 9.1875 6.54408 9.1875 6.88419 8.84742C7.2243 8.50734 7.2243 7.95589 6.88419 7.6158L6.87016 7.60204C6.2037 6.92082 6.20828 5.8283 6.8839 5.1527L9.34716 2.68944C10.0274 2.00923 11.1303 2.00924 11.8105 2.68944C12.4907 3.36965 12.4907 4.47249 11.8105 5.1527L10.9385 6.02472C11.2146 6.7293 11.3001 7.49135 11.195 8.23144L13.0422 6.38433C14.4026 5.02391 14.4026 2.81824 13.0422 1.45782ZM1.95783 12.5422C3.31828 13.9026 5.52399 13.9026 6.88444 12.5422L9.34777 10.0789C10.7082 8.71853 10.7082 6.51282 9.34777 5.1524C9.00759 4.81229 8.45622 4.81229 8.11613 5.1524C7.77595 5.49251 7.77595 6.04392 8.11613 6.38403C8.79631 7.06427 8.79631 8.16708 8.11613 8.84725L5.65278 11.3106C4.97257 11.9907 3.86971 11.9907 3.18949 11.3106C2.50926 10.6303 2.50926 9.5275 3.18949 8.84725L4.06152 7.97522C3.78541 7.27067 3.69991 6.50866 3.80501 5.76851L1.95783 7.61563C0.597391 8.97605 0.597391 11.1818 1.95783 12.5422Z" fill="#9EA0A1"/>
</svg>
