<svg viewBox="0 0 16 21" fill="none" xmlns="http://www.w3.org/2000/svg">
<path d="M7.9961 0.954102C5.23469 0.954102 2.99609 3.1927 2.99609 5.9541C2.99609 8.7155 5.23469 10.9541 7.9961 10.9541C10.7575 10.9541 12.9961 8.7155 12.9961 5.9541C12.9961 3.1927 10.7575 0.954102 7.9961 0.954102ZM4.46489 12.2666C1.85059 12.9811 -0.00390625 15.2543 -0.00390625 17.9541V19.9541C-0.00390625 20.5064 0.443794 20.9541 0.996094 20.9541H14.9961C15.5484 20.9541 15.9961 20.5064 15.9961 19.9541V17.9541C15.9961 15.2543 14.1416 12.9811 11.5273 12.2666C11.3032 12.2053 11.083 12.2336 10.8711 12.3291C9.9556 12.7417 8.981 12.9541 7.9961 12.9541C7.0112 12.9541 6.0366 12.7417 5.1211 12.3291C4.90919 12.2336 4.68899 12.2053 4.46489 12.2666Z" fill="#252A34"/>
</svg>
