<svg width="16" height="16" viewBox="0 0 16 16" fill="none" xmlns="http://www.w3.org/2000/svg">
<path fill-rule="evenodd" clip-rule="evenodd" d="M9.46117 3.71922C11.0467 5.30479 11.0467 7.8755 9.46117 9.46107C7.87558 11.0466 5.30484 11.0466 3.71926 9.46107C2.13368 7.8755 2.13368 5.30479 3.71926 3.71922C5.30484 2.13366 7.87558 2.13366 9.46117 3.71922ZM11.5551 10.1189C13.2499 7.74048 13.0304 4.41746 10.8966 2.28377C8.51826 -0.0945892 4.66215 -0.0945879 2.28378 2.28377C-0.0945933 4.66211 -0.0945933 8.51818 2.28378 10.8965C4.41773 13.0305 7.7413 13.2498 10.1198 11.5544L13.7683 15.203C14.1647 15.5993 14.8074 15.5993 15.2038 15.203C15.6002 14.8065 15.6002 14.1639 15.2038 13.7674L11.5551 10.1189Z" fill="currentColor"/>
</svg>
