<svg viewBox="0 0 172 24" fill="none" xmlns="http://www.w3.org/2000/svg">
<path fill-rule="evenodd" clip-rule="evenodd" d="M3.57616 5.20624V24H0V2.14347C0 0.378744 1.96567 -0.627218 3.34046 0.433896L20.3272 13.5449C20.8509 13.9491 21.1589 14.5823 21.1589 15.2545V24H17.5828V16.0171L3.57616 5.20624ZM41.4238 5.20624V24H45V2.14347C45 0.378744 43.0343 -0.627218 41.6595 0.433896L24.6728 13.5449C24.1491 13.9491 23.8411 14.5823 23.8411 15.2545V24H27.4172V16.0171L41.4238 5.20624ZM61 4.7479C61 3.23027 62.1567 2 63.5835 2C64.5061 2 65.3587 2.52334 65.8203 3.37301L71.359 13.5675L77.023 3.29474C77.4652 2.49271 78.2739 2 79.148 2C80.5085 2 81.6115 3.17314 81.6115 4.62027V22H78.2561V7.07498L73.7061 14.9408C73.1908 15.8317 72.2779 16.3744 71.2945 16.3744C70.3089 16.3744 69.3942 15.8292 68.8796 14.9352L64.3554 7.07498V22H61V4.7479ZM94.5907 3.81485C95.0015 2.71898 95.9987 2 97.1078 2C98.2176 2 99.2152 2.71975 99.6255 3.81649L106.429 22H102.98L100.863 16.8705H93.1406L91.0235 22H87.7747L94.5907 3.81485ZM99.6915 13.5959L97.0019 6.12519L94.299 13.5959H99.6915ZM123.691 2.47563L115.508 11.2285V3.78445C115.508 2.79893 114.757 2 113.83 2C112.904 2 112.153 2.79893 112.153 3.78445V22H115.508V12.3909L124.562 22H128.916L119.343 11.6396L125.837 4.75555C126.795 3.74021 126.119 2 124.767 2C124.363 2 123.976 2.17118 123.691 2.47563ZM137.441 22C135.766 22 134.408 20.5558 134.408 18.7742V5.22581C134.408 3.44424 135.766 2 137.441 2H146.137C146.991 2 147.683 2.73623 147.683 3.64441C147.683 4.55259 146.991 5.28881 146.137 5.28881H137.776V10.1228H145.404C146.258 10.1228 146.95 10.859 146.95 11.7672C146.95 12.6754 146.258 13.4116 145.404 13.4116H137.776V18.8552H146.204C147.021 18.8552 147.683 19.5592 147.683 20.4276C147.683 21.296 147.021 22 146.204 22H137.441ZM170.202 9.61246C170.353 9.02652 170.429 8.41224 170.429 7.76959C170.429 7.023 170.345 6.352 170.176 5.75662C170.007 5.15178 169.79 4.65562 169.523 4.26815C169.266 3.87122 168.938 3.52627 168.538 3.2333C168.148 2.94034 167.766 2.71825 167.393 2.56704C167.029 2.41583 166.607 2.29769 166.128 2.21264C165.658 2.11813 165.254 2.06143 164.916 2.04253C164.588 2.01418 164.224 2 163.825 2H158.802C157.127 2 155.769 3.44424 155.769 5.22581V22H159.124V14.333H162.333L167.633 22H172L166.288 13.7235C167.034 13.4872 167.677 13.1564 168.219 12.7312C168.769 12.3059 169.199 11.8239 169.51 11.2852C169.83 10.7465 170.06 10.1889 170.202 9.61246ZM159.124 11.0442V5.27463H162.839C165.564 5.27463 166.927 6.21497 166.927 8.09564C166.927 8.59652 166.834 9.03125 166.647 9.39982C166.47 9.7684 166.239 10.0566 165.955 10.2646C165.68 10.4725 165.325 10.6379 164.89 10.7607C164.455 10.8741 164.033 10.9497 163.625 10.9875C163.217 11.0253 162.746 11.0442 162.214 11.0442H159.124Z" fill="#252A34"/>
</svg>
