<svg width="24" height="24" viewBox="0 0 24 24" fill="none" xmlns="http://www.w3.org/2000/svg">
<g id="megaphone2-fill">
<path id="Vector" d="M15.3739 3.00711C15.0259 2.86311 14.5949 2.91111 14.2799 3.22611C13.5809 3.92511 12.6959 4.50512 11.6849 4.93912C10.6569 5.37912 8.54689 5.94812 7.00589 5.93812C4.00889 5.91812 1.9989 7.61711 1.9989 10.9071C1.9989 13.7901 3.63591 15.4671 5.99091 15.8441L5.99591 18.9141C6.01291 20.0391 6.9169 20.9341 7.9989 20.9301C9.0809 20.9261 9.99389 20.0231 9.98889 18.9191C9.98789 18.7261 9.9959 16.5401 10.0069 16.3561C12.4929 17.0711 13.6609 17.9911 14.2989 18.6301C14.9289 19.2591 15.9989 18.8221 15.9989 17.9321C15.9989 17.0281 15.9939 15.3911 15.9939 13.7581C17.1729 13.3221 17.9989 12.2051 17.9989 10.9381C17.9989 9.67112 17.2189 8.52514 16.0039 8.10014C16.0039 6.46713 15.9989 4.84813 15.9989 3.94413C15.9989 3.49913 15.7219 3.15211 15.3739 3.00711ZM17.7799 4.78711C17.5329 4.85111 17.3259 5.01813 17.1869 5.25513C16.9069 5.73113 17.0539 6.35013 17.5299 6.62913C19.0499 7.52113 19.9989 9.14512 19.9989 10.9381C19.9989 12.7321 19.0509 14.3551 17.5299 15.2471C17.0539 15.5261 16.8759 16.1441 17.1549 16.6201C17.4349 17.0961 18.0539 17.2431 18.5299 16.9641C20.6569 15.7171 21.9989 13.4481 21.9989 10.9381C21.9989 8.42912 20.6549 6.15912 18.5299 4.91211C18.2919 4.77211 18.0279 4.72311 17.7799 4.78711ZM5.99689 8.03312C5.99689 9.56912 5.99591 12.2831 5.99591 13.8191C4.69491 13.4591 3.9989 12.5401 3.9989 10.9071C3.9989 9.29311 4.62589 8.33612 5.99689 8.03312Z" fill="#F3F5F7"/>
</g>
</svg>
