<svg viewBox="0 0 21 19" fill="none" xmlns="http://www.w3.org/2000/svg">
<path d="M4.23088 -0.000488281C2.19168 -0.000488281 0.538574 1.70084 0.538574 3.79951V12.6674C0.538574 16.1645 3.37356 18.9995 6.87069 18.9995H9.15396V16.4662H6.16617C4.4176 16.4662 3.00011 15.0487 3.00011 13.3001V3.79951C3.00011 3.09996 3.55115 2.53284 4.23088 2.53284H12.8463C13.526 2.53284 14.077 3.09996 14.077 3.79951V11.3995H16.5386V3.79951C16.5386 1.70084 14.8855 -0.000488281 12.8463 -0.000488281H4.23088Z" fill="#343839"/>
<path d="M4.99951 13H7.99951V11H4.99951V13Z" fill="#343839"/>
<path d="M11.9995 10V8H4.99951V10H11.9995Z" fill="#343839"/>
<path d="M11.9995 7H4.99951V5H11.9995V7Z" fill="#343839"/>
<path fill-rule="evenodd" clip-rule="evenodd" d="M19.6961 10.1902C20.0588 10.4763 20.1702 11.1169 19.8618 11.4535L13.9998 17.8535C13.8374 18.0308 13.5326 18.1102 13.2818 18.1119C13.0311 18.1135 12.6649 18.0287 12.4998 17.8536L10.1522 15.357C9.83868 15.0245 9.9359 14.3286 10.2942 14.0376C10.6525 13.7467 11.3904 13.7051 11.7039 14.0376L13.2818 15.7236L18.3695 10.1691C18.6778 9.8325 19.3333 9.90401 19.6961 10.1902Z" fill="#343839"/>
</svg>
    