<svg width="24" height="24" viewBox="0 0 24 24" fill="none" xmlns="http://www.w3.org/2000/svg">
<g id="person-square-fill">
<path id="Vector" opacity="0.997797" d="M6.99072 2.92969C4.78172 2.92969 2.99072 4.72059 2.99072 6.92969V16.9297C2.99072 19.1388 4.78172 20.9297 6.99072 20.9297H16.9907C19.1997 20.9297 20.9907 19.1388 20.9907 16.9297V6.92969C20.9907 4.72059 19.1997 2.92969 16.9907 2.92969H6.99072ZM6.99072 4.92969H16.9907C18.0957 4.92969 18.9907 5.82509 18.9907 6.92969V16.9297C18.9907 17.6646 18.5757 18.312 17.9857 18.6596C17.7937 16.298 15.2567 14.9297 11.9907 14.9297C8.72472 14.9297 6.13771 16.3347 5.98071 18.6663C5.38971 18.3187 4.99072 17.6646 4.99072 16.9297V6.92969C4.99072 5.82509 5.88572 4.92969 6.99072 4.92969ZM11.9907 6.92969C10.0577 6.92969 8.49072 8.49669 8.49072 10.4297C8.49072 12.3627 10.0577 13.9297 11.9907 13.9297C13.9237 13.9297 15.4907 12.3627 15.4907 10.4297C15.4907 8.49669 13.9237 6.92969 11.9907 6.92969Z" fill="#F3F5F7"/>
</g>
</svg>
