<svg viewBox="0 0 32 32" fill="none" xmlns="http://www.w3.org/2000/svg">
<path d="M17.8659 18.791C17.9368 18.861 17.9368 18.9751 17.8659 19.046C17.4784 19.431 16.8709 19.6185 16.0067 19.6185L16 19.6169L15.9933 19.6185C15.1299 19.6185 14.5216 19.431 14.1341 19.0451C14.0632 18.9751 14.0632 18.861 14.1341 18.791C14.2041 18.721 14.3191 18.721 14.3899 18.791C14.7058 19.1051 15.2299 19.2585 15.9933 19.2585L16 19.2601L16.0067 19.2585C16.7692 19.2585 17.2934 19.1051 17.61 18.791C17.6809 18.721 17.7959 18.721 17.8659 18.791ZM14.9991 16.7759C14.9991 16.3533 14.6541 16.0099 14.2307 16.0099C13.8065 16.0099 13.4615 16.3533 13.4615 16.7759C13.4615 17.1975 13.8065 17.5409 14.2307 17.5409C14.6541 17.5418 14.9991 17.1984 14.9991 16.7759ZM26.0013 16.0008C26.0013 21.5236 21.5236 26.0013 16.0008 26.0013C10.478 26.0013 6.00031 21.5236 6.00031 16.0008C6.00031 10.478 10.478 6.00031 16.0008 6.00031C21.5236 6.00031 26.0013 10.478 26.0013 16.0008ZM21.8345 15.8933C21.8345 15.1841 21.2552 14.6074 20.5427 14.6074C20.1952 14.6074 19.8801 14.7466 19.6476 14.9699C18.7676 14.3907 17.5768 14.0224 16.2592 13.9749L16.98 11.7048L18.9326 12.1623L18.9301 12.1906C18.9301 12.7707 19.4044 13.2423 19.9869 13.2423C20.5694 13.2423 21.0427 12.7707 21.0427 12.1906C21.0427 11.6106 20.5694 11.1389 19.9869 11.1389C19.5394 11.1389 19.1585 11.4181 19.0043 11.8089L16.9 11.3156C16.8084 11.2931 16.7142 11.3464 16.6859 11.4364L15.8816 13.9682C14.5016 13.9849 13.2523 14.3566 12.3331 14.9524C12.1023 14.7399 11.7964 14.6066 11.4581 14.6066C10.7464 14.6074 10.1672 15.1841 10.1672 15.8933C10.1672 16.365 10.4264 16.7734 10.8072 16.9975C10.7822 17.1343 10.7655 17.2734 10.7655 17.4143C10.7655 19.3151 13.1032 20.8619 15.9767 20.8619C18.8501 20.8619 21.1877 19.3151 21.1877 17.4143C21.1877 17.2809 21.1736 17.15 21.1511 17.0209C21.5561 16.8034 21.8345 16.3825 21.8345 15.8933ZM17.7743 16.0108C17.35 16.0108 17.0059 16.3542 17.0059 16.7767C17.0059 17.1984 17.3509 17.5418 17.7743 17.5418C18.1976 17.5418 18.5426 17.1984 18.5426 16.7767C18.5426 16.3542 18.1984 16.0108 17.7743 16.0108Z" fill="currentColor"/>
</svg>
