<svg  viewBox="0 0 20 20" fill="none" xmlns="http://www.w3.org/2000/svg">
<path d="M13.6149 0.0576068C13.4751 8.82633e-05 13.3213 -0.0147725 13.1731 0.0148938C13.0248 0.0445601 12.8886 0.117429 12.7816 0.224333C12.6747 0.331355 12.6019 0.467601 12.5722 0.615933C12.5426 0.764265 12.5574 0.918057 12.6149 1.05796C13.2442 2.55931 13.4442 4.20603 13.1925 5.81442C12.9408 7.42282 12.2474 8.92964 11.1896 10.1668C10.1317 11.4039 8.75113 12.3228 7.20175 12.8208C5.65237 13.3188 3.99514 13.3764 2.41493 12.9872C1.95972 12.8782 1.51388 12.7333 1.08159 12.5537C0.939096 12.495 0.782456 12.4797 0.631281 12.5096C0.480106 12.5395 0.341112 12.6134 0.231699 12.722C0.122285 12.8305 0.0473129 12.969 0.0161663 13.1199C-0.0149803 13.2709 -0.000917401 13.4277 0.0565948 13.5708C0.887542 15.6001 2.34118 17.3132 4.20797 18.4629C6.07476 19.6127 8.25829 20.1398 10.4438 19.9683C12.6293 19.7967 14.704 18.9354 16.3687 17.5085C18.0334 16.0816 19.2022 14.1627 19.7066 12.0285C20.2902 9.63417 19.9965 7.10986 18.8788 4.91355C17.7612 2.71723 15.8936 0.994408 13.6149 0.0576068ZM18.1816 11.6617C17.7865 13.3217 16.9178 14.831 15.6809 16.0061C14.4441 17.1811 12.8926 17.9713 11.2151 18.2804C9.53758 18.5896 7.80642 18.4043 6.23222 17.7473C4.65803 17.0902 3.30865 15.9896 2.34826 14.5795C4.98872 15.1213 7.73633 14.6155 10.0111 13.169C12.2858 11.7225 13.9097 9.44835 14.5399 6.82669C14.8909 5.36319 14.9137 3.8401 14.6066 2.36676C16.0762 3.36898 17.2057 4.79544 17.8444 6.45606C18.4831 8.11667 18.6007 9.93256 18.1816 11.6617Z" fill="#252A34"/>
</svg>
