<svg width="32" height="32" viewBox="0 0 32 32" fill="none" xmlns="http://www.w3.org/2000/svg">
<path d="M24.0905 9.77446C22.2731 8.26809 19.398 8.01326 19.2758 8.00244C19.084 7.98571 18.9016 8.09788 18.8234 8.27892C18.8176 8.29072 18.7546 8.43929 18.685 8.67051C19.8867 8.8791 21.3634 9.30021 22.6998 10.1552C22.9136 10.292 22.9795 10.5822 22.8468 10.8036C22.7609 10.9473 22.611 11.026 22.4583 11.026C22.3762 11.026 22.2931 11.0034 22.2177 10.9551C19.9211 9.48716 17.0517 9.41336 16.5 9.41336C15.9483 9.41336 13.078 9.48716 10.7832 10.9551C10.5685 11.0929 10.2878 11.024 10.1542 10.8036C10.0205 10.5822 10.0874 10.293 10.3012 10.1552C11.6375 9.3012 13.1133 8.8791 14.316 8.67051C14.2454 8.43831 14.1824 8.29072 14.1776 8.27892C14.0984 8.09788 13.917 7.98374 13.7242 8.00342C13.603 8.01326 10.7279 8.26809 8.88559 9.7961C7.92341 10.7121 6 16.0725 6 20.7067C6 20.7883 6.021 20.869 6.06014 20.9399C7.38791 23.3435 11.0095 23.9732 11.8351 24.0008C11.8399 24.0008 11.8447 24.0008 11.8495 24.0008C11.9955 24.0008 12.133 23.929 12.2189 23.807L13.0541 22.6243C10.8023 22.0241 9.65209 21.0058 9.58527 20.9458C9.39627 20.7736 9.37814 20.4764 9.54518 20.2816C9.71223 20.0868 9.99955 20.0681 10.1885 20.2393C10.2162 20.2649 12.3344 22.1176 16.5 22.1176C20.6733 22.1176 22.7914 20.257 22.8124 20.2383C23.0014 20.0691 23.2897 20.0868 23.4558 20.2826C23.6219 20.4774 23.6037 20.7736 23.4157 20.9448C23.3489 21.0058 22.1986 22.0231 19.9469 22.6233L20.7821 23.806C20.868 23.928 21.0055 23.9998 21.1515 23.9998C21.1563 23.9998 21.161 23.9998 21.1658 23.9998C21.9915 23.9732 25.613 23.3435 26.9408 20.9389C26.979 20.868 27 20.7883 27 20.7067C27 16.0725 25.0766 10.7121 24.0905 9.77446ZM13.5323 18.8244C12.6503 18.8244 11.9344 17.9812 11.9344 16.9422C11.9344 15.9032 12.6494 15.06 13.5323 15.06C14.4153 15.06 15.1302 15.9032 15.1302 16.9422C15.1302 17.9812 14.4153 18.8244 13.5323 18.8244ZM19.4677 18.8244C18.5857 18.8244 17.8698 17.9812 17.8698 16.9422C17.8698 15.9032 18.5847 15.06 19.4677 15.06C20.3497 15.06 21.0656 15.9032 21.0656 16.9422C21.0656 17.9812 20.3497 18.8244 19.4677 18.8244Z" fill="#8391A7"/>
</svg>
