<svg width="16" height="16" viewBox="0 0 16 16" fill="none" xmlns="http://www.w3.org/2000/svg">
<g id="Group 1000003409">
<path id="Vector" d="M15.9982 8.97615L14.968 7.02938C13.4845 7.81473 12.2792 8.2922 11.3651 8.45628C12.4303 7.72808 13.3978 6.47448 14.2787 4.68441L12.3032 3.70919C11.7024 4.92776 11.1403 5.70941 10.6317 6.20717C10.921 4.87061 10.5524 2.98652 8.9712 0L7.02511 1.03054C7.81018 2.51458 8.28749 3.72025 8.45151 4.63279C7.72357 3.56723 6.4704 2.60122 4.68279 1.71817L3.7079 3.69444C4.92605 4.29543 5.70744 4.8577 6.20502 5.36652C4.86892 5.07708 2.98549 5.44579 0 7.02569L1.03018 8.97246C2.51186 8.18712 3.71527 7.71149 4.62935 7.54557C3.56231 8.28298 2.59664 9.53474 1.71942 11.3156L3.695 12.2908C4.2921 11.0778 4.85602 10.2943 5.36651 9.79284C5.07717 11.1294 5.44575 13.0135 7.02695 16L8.97305 14.9695C8.18798 13.4873 7.71251 12.2834 7.54665 11.3691C8.2838 12.4365 9.53513 13.4025 11.3154 14.28L12.2903 12.3037C11.0776 11.7064 10.2944 11.1441 9.79314 10.6335C10.064 10.6925 10.3552 10.7238 10.6759 10.7238C11.9364 10.7238 13.619 10.2334 16 8.97246L15.9982 8.97615Z" fill="#5B667E"/>
</g>
</svg>
