<svg width="16" height="16" viewBox="0 0 16 16" fill="none" xmlns="http://www.w3.org/2000/svg">
<g id="Frame 1000003479" clip-path="url(#clip0_1561_814)">
<path id="Vector" d="M7.16163 2.46274C7.43776 2.46273 7.66161 2.23889 7.66162 1.96275L7.66167 0.0075479C5.52759 0.096049 3.60953 1.02027 2.22591 2.46286L7.16163 2.46274ZM5.3282 5.42894C5.3282 5.70508 5.10435 5.92892 4.82822 5.92893L0.270262 5.9291C0.544751 4.90307 1.01812 3.95797 1.64587 3.13831L4.82822 3.13819C5.10438 3.13818 5.32825 3.36205 5.32824 3.6382L5.3282 5.42894ZM13.7735 13.5377C12.3905 14.9797 10.4724 15.9039 8.3378 15.993L8.33785 14.0378C8.33785 13.7617 8.5617 13.5378 8.83783 13.5378L13.7735 13.5377ZM7.66182 15.9925C5.52775 15.9041 3.6092 14.9794 2.22618 13.5374L7.16186 13.5373C7.43801 13.5373 7.66187 13.7612 7.66187 14.0373L7.66182 15.9925ZM5.57654 10.5706C5.57655 10.2944 5.8004 10.0706 6.07653 10.0706L15.7292 10.0704C15.4547 11.0964 14.9819 12.041 14.3536 12.8611L6.07651 12.8613C5.80036 12.8614 5.5765 12.6375 5.5765 12.3613L5.57654 10.5706ZM12.0599 7.10424C12.0599 6.8281 12.2837 6.60425 12.5599 6.60424L15.8794 6.60417C15.9592 7.05714 16.0011 7.52351 16.001 7.99954C16.001 8.47556 15.9592 8.94195 15.8793 9.39492L12.5601 9.39453C12.2841 9.3945 12.0603 9.17075 12.0602 8.89469L12.0599 7.91455L12.0599 7.10424ZM5.00602 12.3619C5.00601 12.6381 4.78216 12.8619 4.50603 12.8619L1.64619 12.862C1.01794 12.0418 0.545147 11.0973 0.270706 10.0713L4.50605 10.0712C4.7822 10.0712 5.00607 10.295 5.00606 10.5712L5.00602 12.3619ZM0.121224 6.60454L10.8706 6.60428C11.1467 6.60428 11.3706 6.82814 11.3706 7.10429L11.3705 8.89505C11.3705 9.17118 11.1467 9.39503 10.8706 9.39504L0.121155 9.3953C0.0412913 8.94232 -0.00050224 8.47594 -0.000490816 7.99992C-0.000479392 7.52389 0.0413404 7.05752 0.121224 6.60454ZM6.00476 3.63813C6.00476 3.362 6.22861 3.13815 6.50475 3.13815L14.3538 3.13801C14.9821 3.95817 15.4549 4.9027 15.7293 5.92872L6.50472 5.9289C6.22857 5.92891 6.0047 5.70504 6.00471 5.42889L6.00476 3.63813ZM8.33817 0.00754144C10.4722 0.0959415 12.3908 1.0206 13.7738 2.46258L8.83814 2.4627C8.56199 2.4627 8.33812 2.23884 8.33813 1.96269L8.33817 0.00754144Z" fill="#5B667E"/>
</g>
<defs>
<clipPath id="clip0_1561_814">
<rect width="16" height="16" fill="white"/>
</clipPath>
</defs>
</svg>
