<svg width="16" height="12" viewBox="0 0 16 12" fill="none" xmlns="http://www.w3.org/2000/svg">
<path id="Vector" d="M16 1.4053C16 1.01917 15.7777 0.667539 15.4289 0.501936L14.5682 0.0933459C14.2283 -0.068069 13.8264 -0.0249152 13.5285 0.205012L8.72365 3.91266L10.715 5.43397L13.547 3.24866V8.75809L2.44542 0.259293C2.14732 0.0310786 1.7465 -0.0109358 1.40755 0.1505L0.569999 0.549412C0.221795 0.715255 0 1.06656 0 1.45224V10.5942C0 10.9803 0.222192 11.3318 0.570872 11.4975L1.43164 11.9064C1.77169 12.068 2.17365 12.0249 2.4717 11.7949L7.24127 8.11428L5.24987 6.59296L2.45297 8.75135V3.28905L13.5496 11.7902C13.8478 12.0186 14.2488 12.0607 14.5879 11.8991L15.4301 11.4978C15.7783 11.3319 16 10.9806 16 10.595V1.4053Z" fill="#5B667E"/>
</svg>
