<svg width="32" height="32" viewBox="0 0 32 32" fill="none" xmlns="http://www.w3.org/2000/svg">
<path fill-rule="evenodd" clip-rule="evenodd" d="M16.0783 6C10.512 6 6.0033 10.5087 6.0033 16.075C6.0033 20.528 8.89158 24.3007 12.8931 25.6366C13.3941 25.7294 13.5796 25.4202 13.5796 25.148C13.5796 24.9068 13.5734 24.276 13.5673 23.4348C10.7656 24.0409 10.1718 22.0866 10.1718 22.0866C9.71415 20.9238 9.05238 20.6084 9.05238 20.6084C8.13704 19.9837 9.12042 19.9961 9.12042 19.9961C10.1285 20.0703 10.6666 21.0352 10.6666 21.0352C11.5634 22.5752 13.023 22.1299 13.5982 21.8701C13.691 21.2207 13.9507 20.7754 14.2352 20.5218C12.0025 20.2744 9.6523 19.4086 9.6523 15.5493C9.6523 14.4484 10.0419 13.5516 10.6913 12.8465C10.5862 12.5868 10.2399 11.5663 10.7841 10.1809C10.7841 10.1809 11.6314 9.90877 13.5549 11.2138C14.3589 10.9911 15.2186 10.8798 16.0783 10.8736C16.9318 10.8798 17.7976 10.9911 18.6017 11.2138C20.5251 9.90877 21.3724 10.1809 21.3724 10.1809C21.9229 11.5663 21.5765 12.593 21.4714 12.8465C22.1146 13.5516 22.5042 14.4484 22.5042 15.5493C22.5042 19.4209 20.1478 20.2682 17.9028 20.5218C18.2615 20.8311 18.5893 21.4495 18.5893 22.3896C18.5893 23.7379 18.5769 24.8202 18.5769 25.1542C18.5769 25.4263 18.7563 25.7356 19.2696 25.6366C23.2711 24.3007 26.1532 20.528 26.1532 16.0812C26.1532 10.5087 21.6446 6 16.0783 6Z" fill="#9DA6B9"/>
</svg>
