<svg width="45" height="46" viewBox="0 0 45 46" fill="none" xmlns="http://www.w3.org/2000/svg">
<g id="Group 47345">
<path id="Subtract" fill-rule="evenodd" clip-rule="evenodd" d="M28.1409 0.501343L9.6083 15.8473C6.88988 18.0983 6.69219 22.198 9.18139 24.7001L15.5929 31.1448C17.474 33.0357 17.881 35.9414 16.5918 38.2764L12.6033 45.5004H5.99987C2.68623 45.5004 0 42.8141 0 39.5005V6.50121C0 3.18758 2.68623 0.501343 5.99987 0.501343H28.1409ZM31.6221 0.501343L28.1604 6.80743C26.8841 9.13247 27.2858 12.0197 29.1484 13.908L35.9499 20.8034C38.4337 23.3215 38.2114 27.4308 35.4705 29.6663L16.0568 45.5004H38.9992C42.3128 45.5004 44.999 42.8141 44.999 39.5005V6.50121C44.999 3.18758 42.3128 0.501343 38.9992 0.501343H31.6221Z" fill="#9DA6B9"/>
</g>
</svg>
