<svg width="32" height="32" viewBox="0 0 32 32" fill="none" xmlns="http://www.w3.org/2000/svg">
<path d="M15.7111 12.298L15.7545 12.9967L15.0319 12.9111C12.4018 12.5832 10.1041 11.4709 8.15321 9.60299L7.19944 8.67615L6.95377 9.36058C6.43354 10.8863 6.76591 12.4976 7.84973 13.5813C8.42778 14.1802 8.29772 14.2657 7.3006 13.9093C6.95377 13.7952 6.6503 13.7096 6.6214 13.7524C6.52024 13.8522 6.86706 15.1498 7.14164 15.6631C7.51736 16.3761 8.28327 17.0748 9.12143 17.4883L9.82953 17.8163L8.99137 17.8306C8.18211 17.8306 8.15321 17.8448 8.23992 18.1442C8.52893 19.0711 9.67057 20.055 10.9423 20.4827L11.8382 20.7821L11.0579 21.2384C9.90179 21.8944 8.5434 22.2652 7.18499 22.2936C6.53469 22.3079 6 22.365 6 22.4077C6 22.5503 7.76303 23.3488 8.78906 23.6626C11.8671 24.5894 15.5233 24.1901 18.269 22.6074C20.2198 21.4808 22.1707 19.2422 23.0812 17.0748C23.5725 15.9198 24.0638 13.8094 24.0638 12.797C24.0638 12.1411 24.1072 12.0556 24.9165 11.2713C25.3933 10.815 25.8413 10.3159 25.9281 10.1734C26.0726 9.90243 26.0581 9.90243 25.3211 10.1448C24.0927 10.5726 23.9193 10.5156 24.5263 9.87392C24.9742 9.41762 25.509 8.59059 25.509 8.34818C25.509 8.30541 25.2922 8.3767 25.0465 8.50503C24.7863 8.64762 24.2083 8.86151 23.7748 8.98985L22.9945 9.23225L22.2863 8.76169C21.8962 8.50503 21.3471 8.21985 21.058 8.13429C20.321 7.93466 19.1939 7.96318 18.5291 8.19133C16.7227 8.83299 15.5811 10.4871 15.7111 12.298Z" fill="#9DA6B9"/>
</svg>
