<svg width="32" height="32" viewBox="0 0 32 32" fill="none" xmlns="http://www.w3.org/2000/svg">
<path fill-rule="evenodd" clip-rule="evenodd" d="M23.8167 9.41848C24.6773 9.64848 25.3549 10.3262 25.585 11.1868C26.003 12.7465 26.003 16.0009 26.003 16.0009C26.003 16.0009 26.003 19.2552 25.585 20.8151C25.3549 21.6756 24.6773 22.3533 23.8167 22.5833C22.257 23.0012 16.0025 23.0012 16.0025 23.0012C16.0025 23.0012 9.74797 23.0012 8.18819 22.5833C7.32766 22.3533 6.64989 21.6756 6.4199 20.8151C6.00195 19.2552 6.00195 16.0009 6.00195 16.0009C6.00195 16.0009 6.00195 12.7465 6.4199 11.1868C6.64989 10.3262 7.32766 9.64848 8.18819 9.41848C9.74797 9.00049 16.0025 9.00049 16.0025 9.00049C16.0025 9.00049 22.257 9.00049 23.8167 9.41848ZM19.1845 16.001L13.9569 18.9555V13.0462L19.1845 16.001Z" fill="#9DA6B9"/>
</svg>
